<?xml version="1.0" encoding="iso-8859-1"?>
<!-- Generator: Adobe Illustrator 19.0.0, SVG Export Plug-In . SVG Version: 6.00 Build 0)  -->
<svg xmlns="http://www.w3.org/2000/svg" xmlns:xlink="http://www.w3.org/1999/xlink" version="1.1" id="Capa_1" x="0px" y="0px" viewBox="0 0 512 512" style="enable-background:new 0 0 512 512;" xml:space="preserve" width="512px" height="512px">
<g>
	<g>
		<path d="M255.999,0l-95.146,95.146v-27.83H70.715v117.968L1.117,254.883l59.026,59.026l10.573-10.573V512h370.57V303.335    l10.573,10.573l59.025-59.026L255.999,0z M100.761,97.363h30.046v27.83l-30.046,30.046V97.363z M411.238,481.954H100.761V273.289    l42.788-42.788l17.305,17.305v48.862h30.046v-61.306l-26.105-26.105l49.141-49.141V296.67h30.046V130.069l12.018-12.018    l56.151,56.151l-43.131,43.132v79.335h30.046v-66.89l34.331-34.331l16.312,16.312l-36.621,36.621v48.287h30.046v-35.842    l27.821-27.821l40.284,40.284V481.954z M451.858,271.417L255.999,75.559L60.142,271.417l-16.533-16.534L255.999,42.491    l212.391,212.391L451.858,271.417z" fill="#FFFFFF"/>
	</g>
</g>
<g>
	<g>
		<path d="M154.28,363.708v-38.959h-18.848c-0.388,0.777-1.247,1.701-2.573,2.768c-1.328,1.069-2.802,2.074-4.421,3.012    c-1.62,0.94-3.239,1.75-4.857,2.429c-1.62,0.68-2.882,1.021-3.79,1.021v16.904c1.23,0,2.624-0.194,4.178-0.583    c1.553-0.388,3.091-0.904,4.614-1.553c1.52-0.646,2.897-1.343,4.129-2.088c1.23-0.744,2.136-1.505,2.719-2.284v19.334h-13.795    v16.516h44.983v-16.516H154.28z" fill="#FFFFFF"/>
	</g>
</g>
<g>
	<g>
		<path d="M207.422,363.708v-38.959h-18.848c-0.387,0.777-1.247,1.701-2.573,2.768c-1.328,1.069-2.802,2.074-4.421,3.012    c-1.62,0.94-3.239,1.75-4.857,2.429c-1.62,0.68-2.882,1.021-3.79,1.021v16.904c1.23,0,2.624-0.194,4.178-0.583    s3.091-0.906,4.615-1.555c1.52-0.646,2.897-1.343,4.129-2.088c1.23-0.744,2.136-1.505,2.719-2.284v19.334h-13.796v0.002v16.516    h44.983v-16.516H207.422z" fill="#FFFFFF"/>
	</g>
</g>
<g>
	<g>
		<path d="M275.721,339.955c-1.296-3.595-3.093-6.703-5.391-9.326c-2.299-2.623-5.021-4.678-8.161-6.169    c-3.142-1.488-6.558-2.234-10.251-2.234c-3.691,0-7.108,0.746-10.249,2.234c-3.143,1.491-5.863,3.546-8.162,6.169    c-2.3,2.623-4.096,5.732-5.393,9.326c-1.296,3.595-1.943,7.53-1.943,11.804c0,4.275,0.647,8.21,1.943,11.803    c1.296,3.595,3.093,6.704,5.393,9.327c2.299,2.623,5.02,4.663,8.162,6.12c3.141,1.457,6.558,2.186,10.249,2.186    c3.693,0,7.108-0.729,10.251-2.186c3.141-1.457,5.861-3.497,8.161-6.12c2.298-2.623,4.095-5.733,5.391-9.327    c1.296-3.594,1.943-7.53,1.943-11.803C277.664,347.483,277.017,343.549,275.721,339.955z M257.018,360.842    c-1.328,2.3-3.029,3.448-5.101,3.448c-2.201,0-3.968-1.149-5.294-3.448c-1.328-2.297-1.992-5.326-1.992-9.083    c0-3.757,0.664-6.801,1.992-9.133c1.326-2.332,3.093-3.497,5.294-3.497c2.072,0,3.772,1.166,5.101,3.497    c1.328,2.332,1.992,5.376,1.992,9.133C259.01,355.515,258.346,358.544,257.018,360.842z" fill="#FFFFFF"/>
	</g>
</g>
<g>
	<g>
		<path d="M335.373,339.955c-1.296-3.594-3.093-6.703-5.391-9.326c-2.299-2.623-5.021-4.678-8.161-6.169    c-3.142-1.488-6.558-2.234-10.251-2.234c-3.691,0-7.108,0.746-10.249,2.234c-3.143,1.491-5.863,3.546-8.162,6.169    c-2.299,2.623-4.096,5.732-5.392,9.326s-1.943,7.53-1.943,11.804c0,4.275,0.647,8.21,1.943,11.803    c1.296,3.595,3.093,6.704,5.392,9.327c2.299,2.623,5.02,4.663,8.162,6.12c3.141,1.457,6.558,2.186,10.249,2.186    c3.693,0,7.108-0.729,10.251-2.186c3.141-1.457,5.861-3.497,8.161-6.12c2.298-2.623,4.095-5.733,5.391-9.327    c1.296-3.594,1.943-7.53,1.943-11.803C337.316,347.483,336.669,343.549,335.373,339.955z M316.671,360.842    c-1.328,2.3-3.029,3.448-5.101,3.448c-2.201,0-3.968-1.149-5.294-3.448c-1.328-2.297-1.992-5.326-1.992-9.083    c0-3.757,0.664-6.801,1.992-9.133c1.326-2.332,3.093-3.497,5.294-3.497c2.072,0,3.772,1.166,5.101,3.497    c1.328,2.332,1.992,5.376,1.992,9.133C318.663,355.515,317.999,358.544,316.671,360.842z" fill="#FFFFFF"/>
	</g>
</g>
<g>
	<g>
		<path d="M379.871,363.706v-38.957h-0.001h-18.848c-0.388,0.777-1.247,1.701-2.573,2.768c-1.328,1.069-2.802,2.074-4.421,3.012    c-1.621,0.94-3.239,1.75-4.857,2.429c-1.62,0.68-2.882,1.021-3.79,1.021v16.904c1.23,0,2.624-0.194,4.178-0.583    s3.091-0.906,4.615-1.555c1.52-0.646,2.897-1.343,4.129-2.088c1.23-0.744,2.136-1.505,2.719-2.284v19.334h-13.795v16.516h44.983    v-16.516H379.871z" fill="#FFFFFF"/>
	</g>
</g>
<g>
	<g>
		<path d="M169.436,417.676c-1.297-3.595-3.094-6.702-5.391-9.326c-2.3-2.623-5.021-4.678-8.162-6.169    c-3.142-1.488-6.558-2.234-10.251-2.234c-3.691,0-7.108,0.746-10.249,2.234c-3.143,1.491-5.863,3.546-8.162,6.169    c-2.299,2.623-4.096,5.732-5.392,9.326c-1.296,3.594-1.943,7.53-1.943,11.804s0.647,8.21,1.943,11.803    c1.296,3.594,3.093,6.704,5.392,9.327c2.298,2.623,5.019,4.663,8.162,6.12c3.141,1.457,6.558,2.186,10.249,2.186    c3.693,0,7.108-0.729,10.251-2.186c3.141-1.457,5.861-3.497,8.162-6.12c2.298-2.623,4.095-5.733,5.391-9.327    c1.296-3.594,1.943-7.53,1.943-11.803C171.379,425.205,170.732,421.271,169.436,417.676z M150.734,438.564    c-1.328,2.299-3.029,3.448-5.101,3.448c-2.201,0-3.968-1.149-5.294-3.448c-1.328-2.298-1.992-5.326-1.992-9.084    c0-3.756,0.664-6.8,1.992-9.133c1.326-2.332,3.093-3.497,5.294-3.497c2.072,0,3.772,1.166,5.101,3.497    c1.328,2.332,1.992,5.376,1.992,9.133C152.726,433.238,152.062,436.267,150.734,438.564z" fill="#FFFFFF"/>
	</g>
</g>
<g>
	<g>
		<path d="M213.934,441.43v-38.957h-0.001h-18.848c-0.387,0.777-1.247,1.701-2.573,2.768c-1.328,1.069-2.802,2.074-4.421,3.012    c-1.62,0.94-3.239,1.75-4.857,2.429c-1.62,0.68-2.882,1.021-3.79,1.021v16.904c1.23,0,2.624-0.194,4.178-0.583    s3.091-0.906,4.615-1.555c1.52-0.646,2.897-1.343,4.129-2.088c1.23-0.744,2.136-1.505,2.719-2.284v19.334h-13.795v16.516h44.983    V441.43H213.934z" fill="#FFFFFF"/>
	</g>
</g>
<g>
	<g>
		<path d="M282.231,417.676c-1.296-3.595-3.094-6.702-5.391-9.326c-2.3-2.623-5.021-4.678-8.162-6.169    c-3.143-1.488-6.558-2.234-10.251-2.234c-3.691,0-7.108,0.746-10.249,2.234c-3.142,1.491-5.863,3.546-8.162,6.169    c-2.3,2.623-4.097,5.732-5.393,9.326c-1.296,3.595-1.943,7.53-1.943,11.804s0.647,8.21,1.943,11.803    c1.296,3.594,3.093,6.704,5.393,9.327c2.298,2.623,5.019,4.663,8.162,6.12c3.141,1.457,6.558,2.186,10.249,2.186    c3.693,0,7.108-0.729,10.251-2.186c3.141-1.457,5.861-3.497,8.162-6.12c2.298-2.623,4.095-5.733,5.391-9.327    c1.296-3.594,1.943-7.53,1.943-11.803C284.174,425.205,283.527,421.271,282.231,417.676z M263.528,438.564    c-1.328,2.299-3.029,3.448-5.101,3.448c-2.201,0-3.968-1.149-5.294-3.448c-1.328-2.298-1.992-5.326-1.992-9.084    c0-3.756,0.664-6.8,1.992-9.133c1.326-2.332,3.093-3.497,5.294-3.497c2.072,0,3.772,1.166,5.101,3.497    c1.328,2.332,1.992,5.376,1.992,9.133C265.521,433.238,264.857,436.267,263.528,438.564z" fill="#FFFFFF"/>
	</g>
</g>
<g>
	<g>
		<path d="M326.728,441.43v-38.957h-0.001h-18.848c-0.388,0.777-1.247,1.701-2.573,2.768c-1.328,1.069-2.802,2.074-4.421,3.012    c-1.62,0.94-3.239,1.75-4.857,2.429c-1.62,0.68-2.882,1.021-3.79,1.021v16.904c1.23,0,2.624-0.194,4.178-0.583    s3.091-0.906,4.615-1.555c1.52-0.646,2.897-1.343,4.129-2.088c1.23-0.744,2.136-1.505,2.719-2.284v19.334h-13.795v16.516h44.983    V441.43H326.728z" fill="#FFFFFF"/>
	</g>
</g>
<g>
	<g>
		<path d="M379.871,441.43v-38.957h-0.001h-18.848c-0.388,0.777-1.247,1.701-2.573,2.768c-1.328,1.069-2.802,2.074-4.421,3.012    c-1.621,0.94-3.239,1.75-4.857,2.429c-1.62,0.68-2.882,1.021-3.79,1.021v16.904c1.23,0,2.624-0.194,4.178-0.583    s3.091-0.906,4.615-1.555c1.52-0.646,2.897-1.343,4.129-2.088c1.23-0.744,2.136-1.505,2.719-2.284v19.334h-13.795v16.516h44.983    V441.43H379.871z" fill="#FFFFFF"/>
	</g>
</g>
<g>
</g>
<g>
</g>
<g>
</g>
<g>
</g>
<g>
</g>
<g>
</g>
<g>
</g>
<g>
</g>
<g>
</g>
<g>
</g>
<g>
</g>
<g>
</g>
<g>
</g>
<g>
</g>
<g>
</g>
</svg>
